<?xml version="1.0" standalone="no"?>
<!DOCTYPE svg PUBLIC "-//W3C//DTD SVG 20010904//EN"
 "http://www.w3.org/TR/2001/REC-SVG-20010904/DTD/svg10.dtd">
<svg version="1.0" xmlns="http://www.w3.org/2000/svg"
 width="512.000000pt" height="512.000000pt" viewBox="0 0 512.000000 512.000000"
 preserveAspectRatio="xMidYMid meet">

<g transform="translate(0.000000,512.000000) scale(0.100000,-0.100000)"
fill="#000000" stroke="none">
<path d="M275 4997 c-58 -15 -138 -98 -153 -159 -19 -73 -16 -4199 2 -4251 22
-59 64 -107 120 -133 l51 -24 1710 0 1710 0 45 -57 c88 -112 227 -201 370
-240 89 -23 263 -23 350 0 248 68 439 259 507 507 23 87 23 261 0 350 -39 143
-128 282 -240 370 l-57 45 0 1710 0 1710 -24 51 c-26 56 -74 98 -133 120 -31
11 -406 13 -2128 13 -1422 -1 -2103 -4 -2130 -12z m1325 -472 l0 -385 -695 0
-696 0 3 339 c3 325 4 341 24 368 48 65 23 63 727 63 l637 0 0 -385z m1500 0
l0 -385 -700 0 -700 0 0 385 0 385 700 0 700 0 0 -385z m1420 367 c19 -9 43
-33 55 -52 19 -33 20 -54 23 -367 l3 -333 -700 0 -701 0 0 385 0 385 643 0
c591 0 645 -1 677 -18z m-2915 -2612 l0 -1755 -650 0 -650 0 -33 23 c-67 48
-62 -93 -62 1787 l0 1705 698 -2 697 -3 0 -1755z m1495 0 l0 -1760 -697 2
-698 3 -3 1745 c-1 960 0 1751 3 1758 3 9 153 12 700 12 l695 0 0 -1760z
m1498 466 c2 -1155 0 -1288 -13 -1282 -105 40 -166 51 -280 51 -137 0 -218
-20 -340 -83 -95 -50 -227 -182 -277 -277 -63 -122 -83 -203 -83 -340 0 -114
11 -175 51 -280 5 -13 -21 -15 -225 -15 l-231 0 0 1760 0 1760 698 -2 697 -3
3 -1289z m-143 -1346 c279 -71 469 -333 452 -621 -32 -516 -657 -756 -1023
-394 -84 83 -137 173 -164 280 -37 145 -18 305 52 438 43 81 164 202 245 245
133 70 293 89 438 52z"/>
<path d="M556 4554 c-21 -21 -20 -40 4 -64 19 -19 33 -20 348 -20 306 0 330 1
345 18 20 22 22 53 5 70 -9 9 -100 12 -349 12 -294 0 -340 -2 -353 -16z"/>
<path d="M2052 4558 c-19 -19 -14 -55 10 -72 19 -14 69 -16 343 -16 332 0 344
1 358 41 3 9 -1 26 -9 38 -15 21 -20 21 -353 21 -249 0 -340 -3 -349 -12z"/>
<path d="M3546 4548 c-20 -29 -20 -34 4 -58 19 -19 33 -20 344 -20 303 0 325
1 347 19 20 16 22 23 14 47 l-10 29 -342 3 -342 2 -15 -22z"/>
<path d="M540 3668 c-74 -51 -75 -54 -75 -303 0 -249 1 -252 75 -302 33 -23
37 -23 364 -23 379 0 383 1 424 80 21 42 22 56 22 245 0 189 -1 203 -22 245
-41 79 -45 80 -424 80 -327 0 -331 0 -364 -22z m694 -94 c24 -23 24 -395 0
-418 -13 -14 -57 -16 -328 -16 -229 0 -315 3 -324 12 -17 17 -17 409 0 426 9
9 95 12 324 12 271 0 315 -2 328 -16z"/>
<path d="M565 2603 c-33 -9 -74 -43 -93 -76 -15 -28 -17 -62 -17 -247 0 -249
5 -267 85 -308 45 -22 48 -23 372 -20 312 3 328 4 354 24 15 11 37 33 48 48
20 26 21 41 21 256 0 215 -1 230 -21 256 -11 15 -33 37 -48 48 -26 20 -41 21
-354 23 -180 0 -336 -1 -347 -4z m655 -113 c19 -19 20 -33 20 -210 0 -177 -1
-191 -20 -210 -19 -19 -33 -20 -314 -20 -167 0 -306 4 -320 10 l-26 10 0 209
c0 189 2 211 18 220 10 6 133 11 320 11 289 0 303 -1 322 -20z"/>
<path d="M543 1504 c-18 -9 -43 -33 -55 -53 -22 -35 -23 -45 -23 -258 0 -247
1 -250 75 -300 33 -23 37 -23 364 -23 378 0 381 1 423 80 22 41 23 54 23 244
0 228 -10 268 -72 306 -31 19 -49 20 -368 20 -287 0 -340 -3 -367 -16z m697
-103 c6 -12 10 -97 10 -207 0 -160 -2 -190 -17 -206 -15 -17 -39 -18 -328 -18
-228 0 -314 3 -323 12 -17 17 -17 409 0 426 9 9 96 12 330 12 303 0 318 -1
328 -19z"/>
<path d="M2040 3673 c-23 -12 -43 -34 -57 -63 -22 -41 -23 -57 -23 -245 0
-189 1 -203 23 -245 40 -79 44 -80 423 -80 327 0 331 0 364 23 70 47 74 60 78
242 3 91 1 195 -3 231 -6 59 -11 72 -45 108 l-39 41 -343 3 c-311 2 -346 1
-378 -15z m694 -105 c13 -18 16 -56 16 -203 0 -147 -3 -185 -16 -203 -15 -22
-16 -22 -334 -22 -305 0 -320 1 -330 19 -6 12 -10 97 -10 206 0 109 4 194 10
206 10 18 25 19 330 19 318 0 319 0 334 -22z"/>
<path d="M2065 2596 c-41 -18 -83 -69 -90 -109 -4 -18 -5 -123 -3 -234 3 -221
5 -227 72 -277 26 -20 42 -21 352 -24 472 -4 454 -17 454 326 0 246 -3 261
-62 304 -33 23 -35 23 -363 25 -260 2 -336 0 -360 -11z m679 -108 c13 -18 16
-56 16 -210 0 -175 -1 -189 -20 -208 -19 -19 -33 -20 -327 -20 -271 0 -309 2
-325 17 -16 15 -18 35 -18 211 0 168 2 198 17 214 15 17 39 18 329 18 312 0
313 0 328 -22z"/>
<path d="M3529 3669 c-70 -41 -74 -56 -74 -306 0 -247 1 -250 75 -300 33 -23
37 -23 364 -23 379 0 383 1 424 80 21 42 22 56 22 245 0 189 -1 203 -22 245
-41 79 -45 80 -423 80 -316 0 -332 -1 -366 -21z m701 -98 c6 -12 10 -97 10
-206 0 -109 -4 -194 -10 -206 -10 -18 -25 -19 -330 -19 -276 0 -321 2 -334 16
-13 13 -16 46 -16 209 0 163 3 196 16 209 13 14 58 16 334 16 305 0 320 -1
330 -19z"/>
<path d="M3552 2603 c-37 -7 -89 -65 -102 -113 -8 -29 -11 -108 -8 -234 4
-221 11 -244 88 -284 45 -22 48 -23 371 -20 l326 3 37 29 c63 48 67 69 64 311
-3 234 -4 239 -72 289 -26 20 -41 21 -354 22 -180 1 -337 0 -350 -3z m660
-110 c16 -15 18 -35 18 -211 0 -168 -2 -198 -17 -214 -15 -17 -38 -18 -325
-18 -295 0 -309 1 -328 20 -19 19 -20 33 -20 208 0 154 3 192 16 210 15 22 16
22 326 22 276 0 314 -2 330 -17z"/>
<path d="M4580 1127 c-19 -7 -113 -70 -208 -140 -95 -70 -177 -127 -181 -127
-5 0 -27 31 -50 69 -47 79 -78 108 -128 117 -105 20 -197 -80 -166 -181 16
-50 180 -311 215 -340 23 -20 40 -25 81 -25 29 1 61 6 73 13 60 35 496 361
518 387 28 34 42 87 31 127 -8 35 -77 103 -103 103 -11 0 -26 2 -34 5 -7 2
-29 -2 -48 -8z m75 -107 c34 -38 15 -58 -236 -240 -133 -96 -248 -179 -256
-183 -26 -15 -57 19 -140 156 -84 136 -95 165 -69 187 33 27 59 7 122 -94 60
-96 77 -116 100 -116 7 0 107 70 224 155 117 85 218 155 225 155 7 0 20 -9 30
-20z"/>
</g>
</svg>
